<mxfile host="app.diagrams.net" agent="Mozilla/5.0 (Windows NT 10.0; Win64; x64) AppleWebKit/537.36 (KHTML, like Gecko) Chrome/139.0.0.0 Safari/537.36" version="28.2.2">
  <diagram name="Page-1" id="vBdMR0AH53xiQDAA6SDS">
    <mxGraphModel dx="1246" dy="616" grid="1" gridSize="10" guides="1" tooltips="1" connect="1" arrows="1" fold="1" page="1" pageScale="1" pageWidth="827" pageHeight="1169" math="0" shadow="0">
      <root>
        <mxCell id="0" />
        <mxCell id="1" parent="0" />
        <mxCell id="CubyhEKz0OqUXnQbu3QI-1" value="" style="ellipse;whiteSpace=wrap;html=1;" vertex="1" parent="1">
          <mxGeometry x="350" y="190" width="120" height="80" as="geometry" />
        </mxCell>
        <mxCell id="CubyhEKz0OqUXnQbu3QI-13" value="" style="edgeStyle=orthogonalEdgeStyle;rounded=0;orthogonalLoop=1;jettySize=auto;html=1;" edge="1" parent="1" source="CubyhEKz0OqUXnQbu3QI-2" target="CubyhEKz0OqUXnQbu3QI-3">
          <mxGeometry relative="1" as="geometry" />
        </mxCell>
        <mxCell id="CubyhEKz0OqUXnQbu3QI-2" value="Develop" style="ellipse;whiteSpace=wrap;html=1;direction=west;fillColor=#fff2cc;strokeColor=#d6b656;" vertex="1" parent="1">
          <mxGeometry x="350" y="190" width="120" height="80" as="geometry" />
        </mxCell>
        <mxCell id="CubyhEKz0OqUXnQbu3QI-14" value="" style="edgeStyle=orthogonalEdgeStyle;rounded=0;orthogonalLoop=1;jettySize=auto;html=1;" edge="1" parent="1" source="CubyhEKz0OqUXnQbu3QI-3" target="CubyhEKz0OqUXnQbu3QI-6">
          <mxGeometry relative="1" as="geometry" />
        </mxCell>
        <mxCell id="CubyhEKz0OqUXnQbu3QI-3" value="Build" style="ellipse;whiteSpace=wrap;html=1;fillColor=#fff2cc;strokeColor=#d6b656;" vertex="1" parent="1">
          <mxGeometry x="350" y="330" width="120" height="80" as="geometry" />
        </mxCell>
        <mxCell id="CubyhEKz0OqUXnQbu3QI-15" value="" style="edgeStyle=orthogonalEdgeStyle;rounded=0;orthogonalLoop=1;jettySize=auto;html=1;" edge="1" parent="1" source="CubyhEKz0OqUXnQbu3QI-6" target="CubyhEKz0OqUXnQbu3QI-8">
          <mxGeometry relative="1" as="geometry" />
        </mxCell>
        <mxCell id="CubyhEKz0OqUXnQbu3QI-6" value="Text" style="ellipse;whiteSpace=wrap;html=1;fillColor=#fff2cc;strokeColor=#d6b656;" vertex="1" parent="1">
          <mxGeometry x="350" y="460" width="120" height="80" as="geometry" />
        </mxCell>
        <mxCell id="CubyhEKz0OqUXnQbu3QI-17" value="" style="edgeStyle=orthogonalEdgeStyle;rounded=0;orthogonalLoop=1;jettySize=auto;html=1;" edge="1" parent="1" source="CubyhEKz0OqUXnQbu3QI-7" target="CubyhEKz0OqUXnQbu3QI-10">
          <mxGeometry relative="1" as="geometry" />
        </mxCell>
        <mxCell id="CubyhEKz0OqUXnQbu3QI-7" value="Deploy" style="ellipse;whiteSpace=wrap;html=1;fillColor=#fff2cc;strokeColor=#d6b656;" vertex="1" parent="1">
          <mxGeometry x="350" y="770" width="120" height="80" as="geometry" />
        </mxCell>
        <mxCell id="CubyhEKz0OqUXnQbu3QI-16" value="" style="edgeStyle=orthogonalEdgeStyle;rounded=0;orthogonalLoop=1;jettySize=auto;html=1;" edge="1" parent="1" source="CubyhEKz0OqUXnQbu3QI-8" target="CubyhEKz0OqUXnQbu3QI-7">
          <mxGeometry relative="1" as="geometry" />
        </mxCell>
        <mxCell id="CubyhEKz0OqUXnQbu3QI-8" value="Release" style="ellipse;whiteSpace=wrap;html=1;fillColor=#fff2cc;strokeColor=#d6b656;" vertex="1" parent="1">
          <mxGeometry x="350" y="620" width="120" height="80" as="geometry" />
        </mxCell>
        <mxCell id="CubyhEKz0OqUXnQbu3QI-9" value="Monitor" style="ellipse;whiteSpace=wrap;html=1;fillColor=#fff2cc;strokeColor=#d6b656;" vertex="1" parent="1">
          <mxGeometry x="350" y="1070" width="120" height="80" as="geometry" />
        </mxCell>
        <mxCell id="CubyhEKz0OqUXnQbu3QI-18" value="" style="edgeStyle=orthogonalEdgeStyle;rounded=0;orthogonalLoop=1;jettySize=auto;html=1;" edge="1" parent="1" source="CubyhEKz0OqUXnQbu3QI-10" target="CubyhEKz0OqUXnQbu3QI-9">
          <mxGeometry relative="1" as="geometry" />
        </mxCell>
        <mxCell id="CubyhEKz0OqUXnQbu3QI-10" value="Operate" style="ellipse;whiteSpace=wrap;html=1;fillColor=#fff2cc;strokeColor=#d6b656;" vertex="1" parent="1">
          <mxGeometry x="350" y="910" width="120" height="80" as="geometry" />
        </mxCell>
        <mxCell id="CubyhEKz0OqUXnQbu3QI-12" value="" style="edgeStyle=orthogonalEdgeStyle;rounded=0;orthogonalLoop=1;jettySize=auto;html=1;" edge="1" parent="1" source="CubyhEKz0OqUXnQbu3QI-11" target="CubyhEKz0OqUXnQbu3QI-2">
          <mxGeometry relative="1" as="geometry" />
        </mxCell>
        <mxCell id="CubyhEKz0OqUXnQbu3QI-11" value="Plan" style="ellipse;whiteSpace=wrap;html=1;fillColor=#fff2cc;strokeColor=#d6b656;" vertex="1" parent="1">
          <mxGeometry x="350" y="70" width="120" height="80" as="geometry" />
        </mxCell>
      </root>
    </mxGraphModel>
  </diagram>
</mxfile>
